<svg id="Line" height="512" viewBox="0 0 64 64" width="512" xmlns="http://www.w3.org/2000/svg"><g fill="#c4a2fc"><path d="m61.5 37h-3.03c.02.33.03.66.03 1s-.01.67-.03 1h3.03a1 1 0 0 0 0-2z"/><path d="m16.53 37h-3.03a1 1 0 0 0 0 2h3.03c-.02-.33-.03-.66-.03-1s.01-.67.03-1z"/><path d="m38.5 17.03v-3.03a1 1 0 0 0 -2 0v3.03c.33-.02.66-.03 1-.03s.67.01 1 .03z"/><path d="m36.5 58.97v3.03a1 1 0 0 0 2 0v-3.03c-.33.02-.66.03-1 .03s-.67-.01-1-.03z"/><path d="m52.5 38a1 1 0 0 1 1-1h4.97a21 21 0 0 0 -19.97-19.97v4.97a1 1 0 0 1 -2 0v-4.97a21 21 0 0 0 -19.97 19.97h4.97a1 1 0 0 1 0 2h-4.97a21 21 0 0 0 19.97 19.97v-4.97a1 1 0 0 1 2 0v4.97a21 21 0 0 0 19.97-19.97h-4.97a1 1 0 0 1 -1-1zm-11 1h-3v3a1 1 0 0 1 -2 0v-3h-3a1 1 0 0 1 0-2h3v-3a1 1 0 0 1 2 0v3h3a1 1 0 0 1 0 2z"/></g><path d="m2.5 11a1 1 0 0 0 1-1v-6a1 1 0 0 1 1-1h6a1 1 0 0 0 0-2h-6a3 3 0 0 0 -3 3v6a1 1 0 0 0 1 1z" fill="#151a6a"/><path d="m48.5 1h-6a1 1 0 0 0 0 2h6a1 1 0 0 1 1 1v6a1 1 0 0 0 2 0v-6a3 3 0 0 0 -3-3z" fill="#151a6a"/><path d="m10.5 49h-6a1 1 0 0 1 -1-1v-6a1 1 0 0 0 -2 0v6a3 3 0 0 0 3 3h6a1 1 0 0 0 0-2z" fill="#151a6a"/><path d="m50.5 41a1 1 0 0 0 -1 1v6a1 1 0 0 1 -1 1h-6a1 1 0 0 0 0 2h6a3 3 0 0 0 3-3v-6a1 1 0 0 0 -1-1z" fill="#151a6a"/><path d="m50.5 25h-7.051a16.994 16.994 0 0 0 -15.949-15.949v-7.051a1 1 0 0 0 -2 0v7.051a16.994 16.994 0 0 0 -15.949 15.949h-7.051a1 1 0 0 0 0 2h7.051a16.994 16.994 0 0 0 15.949 15.949v7.051a1 1 0 0 0 2 0v-7.051a16.994 16.994 0 0 0 15.949-15.949h7.051a1 1 0 0 0 0-2zm-9.051 0h-13.949v-13.949a15 15 0 0 1 13.949 13.949zm-15.949-13.949v13.949h-13.949a15 15 0 0 1 13.949-13.949zm-13.949 15.949h13.949v13.949a15 15 0 0 1 -13.949-13.949zm15.949 13.949v-13.949h13.949a15 15 0 0 1 -13.949 13.949z" fill="#151a6a"/></svg>